HIERARCHY
ROOT Hips
{
  OFFSET 0 89.5177 0.535
  CHANNELS 6 Xposition Yposition Zposition Zrotation Xrotation Yrotation
  JOINT Spine
  {
    OFFSET 12.0259 -0.162855 1.69034e-005
    CHANNELS 3 Zrotation Xrotation Yrotation
    JOINT Spine1
    {
      OFFSET 15.3169 -0.0121922 0
      CHANNELS 3 Zrotation Xrotation Yrotation
      JOINT Spine2
      {
        OFFSET 15.3176 -0.0121908 0
        CHANNELS 3 Zrotation Xrotation Yrotation
        JOINT Neck
        {
          OFFSET 19.9142 1.56338 0
          CHANNELS 3 Zrotation Xrotation Yrotation
          JOINT Head
          {
            OFFSET 6.92651 0 0
            CHANNELS 3 Zrotation Xrotation Yrotation
            End Site
            {
              OFFSET 20.7666 0 0
            }
          }
          JOINT LeftShoulder
          {
            OFFSET -6.20654 0.708824 7.28219
            CHANNELS 3 Zrotation Xrotation Yrotation
            JOINT LeftArm
            {
              OFFSET 14.108 0 -1.52588e-005
              CHANNELS 3 Zrotation Xrotation Yrotation
              JOINT LeftForeArm
              {
                OFFSET 28.5802 0 0
                CHANNELS 3 Zrotation Xrotation Yrotation
                JOINT LeftHand
                {
                  OFFSET 27.092 0 0
                  CHANNELS 3 Zrotation Xrotation Yrotation
                  End Site
                  {
                    OFFSET 9.55928 -0.186424 0.145352
                  }
                }
              }
            }
          }
          JOINT RightShoulder
          {
            OFFSET -6.20654 0.708866 -7.28218
            CHANNELS 3 Zrotation Xrotation Yrotation
            JOINT RightArm
            {
              OFFSET 14.108 0 1.52588e-005
              CHANNELS 3 Zrotation Xrotation Yrotation
              JOINT RightForeArm
              {
                OFFSET 28.5802 0 0
                CHANNELS 3 Zrotation Xrotation Yrotation
                JOINT RightHand
                {
                  OFFSET 27.092 0 0
                  CHANNELS 3 Zrotation Xrotation Yrotation
                  End Site
                  {
                    OFFSET 9.55929 -0.186417 -0.145354
                  }
                }
              }
            }
          }
        }
      }
    }
  }
  JOINT LeftUpLeg
  {
    OFFSET 0.005 -0.535 8.837
    CHANNELS 3 Zrotation Xrotation Yrotation
    JOINT LeftLeg
    {
      OFFSET 39.9035 0 0
      CHANNELS 3 Zrotation Xrotation Yrotation
      JOINT LeftFoot
      {
        OFFSET 39.6689 0 0
        CHANNELS 3 Zrotation Xrotation Yrotation
        JOINT LeftToe
        {
          OFFSET 10.1624 13.6296 0
          CHANNELS 3 Zrotation Xrotation Yrotation
          End Site
          {
            OFFSET 8.38147 0 0
          }
        }
      }
    }
  }
  JOINT RightUpLeg
  {
    OFFSET 0.005 -0.535 -8.837
    CHANNELS 3 Zrotation Xrotation Yrotation
    JOINT RightLeg
    {
      OFFSET 39.9035 0 0
      CHANNELS 3 Zrotation Xrotation Yrotation
      JOINT RightFoot
      {
        OFFSET 39.6689 0 0
        CHANNELS 3 Zrotation Xrotation Yrotation
        JOINT RightToe
        {
          OFFSET 10.1624 13.6296 0
          CHANNELS 3 Zrotation Xrotation Yrotation
          End Site
          {
            OFFSET 8.38147 0 0
          }
        }
      }
    }
  }
}
MOTION
Frames:	11
Frame Time:	0.0333333
162.804 88.8143 -158.992 134.105 -85.0118 45.0229 -0.512414 -1.38056 -0.866425 -1.0461 -2.75268 -1.74575 -1.0461 -2.75268 -1.74576 -8.30768e-012 -9.0191e-006 -5.27751e-005 3.70035 -1.05968 2.17226 -178.129 -28.3417 -86.064 -28.132 -48.136 1.37317 -7.92084 -1.27222e-014 -0 -28.8223 -54.0392 -32.2674 -178.745 21.3351 86.5539 -33.5264 38.5718 4.44812 -4.65138 -6.36111e-015 -1.59028e-015 -62.2566 69.1993 65.1835 4.42002 13.0829 179.352 -1.25837 -3.18055e-015 -1.19271e-015 8.76329 4.63846 -4.76375 90 1.98785e-016 1.59028e-015 -3.91671 -13.3303 175.272 -10.7567 3.18056e-015 -0 10.6783 -1.8971 3.62898 90 1.40286e-020 -0 
162.793 88.8153 -158.97 133.763 -84.93 44.7029 -0.521597 -1.38032 -0.875485 -1.06469 -2.75198 -1.76409 -1.06469 -2.75198 -1.7641 -8.30768e-012 -9.0191e-006 -5.27751e-005 3.71457 -0.955205 2.10867 -178.156 -28.2487 -86.1075 -27.6764 -47.9178 1.70021 -8.22199 9.54166e-015 7.95139e-016 -28.7189 -54.1186 -32.1699 -178.731 21.3118 86.5136 -33.3721 38.5215 4.40109 -4.71339 0 1.59028e-015 -62.2076 69.2397 65.1308 4.4095 12.9941 179.316 -1.17023 3.18055e-015 3.97569e-016 8.69588 4.62551 -4.74275 90 -2.85753e-016 -3.18055e-015 -4.00057 -13.4543 175.229 -10.8105 -3.18056e-015 3.97569e-016 10.696 -1.94429 3.63656 90 -1.66827e-020 -3.18055e-015 
162.781 88.8208 -158.959 132.81 -84.868 43.7597 -0.530318 -1.38344 -0.87878 -1.08227 -2.75804 -1.77093 -1.08227 -2.75804 -1.77094 -8.30768e-012 -9.0191e-006 -5.27751e-005 3.76216 -0.89169 2.09033 -178.136 -28.2124 -86.061 -27.4512 -47.7488 1.87781 -8.42679 0 -0 -28.6992 -54.2285 -32.1641 -178.743 21.301 86.5441 -33.2165 38.54 4.31145 -4.80877 -9.54166e-015 -2.38542e-015 -62.1727 69.2726 65.0932 4.4265 12.8874 179.307 -1.13542 6.36111e-015 3.97569e-016 8.65337 4.62418 -4.73587 90 6.95746e-016 3.18055e-015 -3.91496 -13.3995 175.222 -10.7117 -1.59028e-015 -3.97569e-016 10.6544 -1.79652 3.64629 90 -3.98109e-021 -0 
162.768 88.827 -158.943 132.101 -84.7918 43.0623 -0.538188 -1.38882 -0.88775 -1.09831 -2.7686 -1.78912 -1.09831 -2.76859 -1.78913 -8.30738e-012 -9.0191e-006 -5.27751e-005 3.81756 -0.849408 2.09243 -178.089 -28.2275 -85.9641 -27.4751 -47.8778 1.87374 -8.49878 6.36111e-015 7.95139e-016 -28.8286 -54.2412 -32.3019 -178.706 21.3427 86.4476 -33.2429 38.481 4.35522 -4.90879 -3.18055e-015 -7.95139e-016 -62.3148 69.2504 65.2454 4.42373 12.8167 179.294 -1.08942 -3.18055e-015 1.19271e-015 8.60944 4.64531 -4.76358 90 3.35449e-016 -0 -3.87514 -13.4188 175.208 -10.6264 1.59028e-015 -0 10.6117 -1.72716 3.6569 90 -1.32703e-021 -1.59028e-015 
162.756 88.83 -158.92 131.751 -84.6905 42.7259 -0.549143 -1.3972 -0.897297 -1.1206 -2.78508 -1.80858 -1.1206 -2.78508 -1.80859 -8.30738e-012 -9.0191e-006 -5.27751e-005 3.84415 -0.827346 2.09266 -178.094 -28.2577 -85.9798 -27.4331 -47.899 1.98409 -8.48955 -6.36111e-015 -1.59028e-015 -29.0147 -54.1973 -32.4914 -178.701 21.3518 86.4358 -33.1871 38.6431 4.27103 -5.03534 -6.36111e-015 1.59028e-015 -62.4248 69.2446 65.3633 4.40806 12.7394 179.267 -0.985862 -3.18055e-015 -7.95139e-016 8.53567 4.65022 -4.76513 90 -3.85145e-016 -1.59028e-015 -3.92621 -13.506 175.18 -10.6177 -4.77083e-015 -0 10.6015 -1.72033 3.66489 90 1.08058e-020 1.59028e-015 
162.756 88.83 -158.914 131.258 -84.61 42.2294 -0.549608 -1.40438 -0.90302 -1.11733 -2.79943 -1.82006 -1.11733 -2.79943 -1.82007 -8.30788e-012 -9.0191e-006 -5.27751e-005 3.83945 -0.828542 2.10174 -178.112 -28.233 -86.0142 -27.3054 -47.8438 2.08922 -8.4888 -6.36111e-015 1.59028e-015 -28.9304 -54.2052 -32.404 -178.692 21.3506 86.4118 -33.0883 38.6274 4.17049 -5.13394 3.18055e-015 -0 -62.5369 69.1853 65.4837 4.46378 12.6724 179.257 -0.805429 -3.18055e-015 -0 8.45116 4.67089 -4.79202 90 1.73937e-016 -0 -3.92629 -13.5413 175.181 -10.5946 1.59028e-015 -3.97569e-016 10.594 -1.67136 3.66411 90 1.33461e-019 -3.18055e-015 
162.758 88.8304 -158.909 130.93 -84.5848 41.8884 -0.549775 -1.40397 -0.906913 -1.10979 -2.79863 -1.82775 -1.10979 -2.79863 -1.82776 -8.30728e-012 -9.0191e-006 -5.27751e-005 3.86545 -0.788364 2.09727 -178.118 -28.2783 -86.0327 -27.4022 -47.973 2.09167 -8.3119 -9.54166e-015 7.95139e-016 -28.8667 -54.1751 -32.3327 -178.683 21.3276 86.3835 -33.0452 38.6488 4.10019 -5.13459 6.36111e-015 2.38542e-015 -62.6827 69.1223 65.6324 4.33108 12.6347 179.309 -1.05419 -3.18055e-015 -0 8.5739 4.67168 -4.80079 90 -1.36664e-016 -0 -3.8874 -13.4913 175.203 -10.5526 -1.59028e-015 1.59028e-015 10.5752 -1.60463 3.66228 90 4.48916e-019 1.59028e-015 
162.759 88.8304 -158.9 131.128 -84.5665 42.0867 -0.5497 -1.39134 -0.911612 -1.12196 -2.77323 -1.83717 -1.12196 -2.77323 -1.83718 -8.30778e-012 -9.0191e-006 -5.27751e-005 4.00454 -0.819151 2.03164 -178.13 -28.2519 -86.0536 -27.3524 -47.9308 2.14532 -8.29647 0 7.95139e-016 -28.9536 -54.163 -32.4223 -178.679 21.3271 86.3731 -32.986 38.6218 4.01877 -5.13361 -3.18055e-015 -0 -62.6544 69.1388 65.6029 4.27599 12.6124 179.313 -1.09713 6.36111e-015 -0 8.58254 4.65235 -4.7703 90 -4.34841e-016 -0 -3.93035 -13.5485 175.2 -10.5673 -1.59028e-015 -0 10.5774 -1.64542 3.66014 90 3.63986e-019 1.59028e-015 
162.759 88.8305 -158.912 130.961 -84.5472 41.9033 -0.541786 -1.38363 -0.917604 -1.1059 -2.75792 -1.84197 -1.1059 -2.75792 -1.84198 -8.30728e-012 -9.0191e-006 -5.27751e-005 4.05379 -0.772143 1.99422 -178.151 -28.2573 -86.0999 -27.234 -48.0059 2.31617 -8.41225 -3.18055e-015 -0 -29.1498 -54.1624 -32.6285 -178.675 21.3333 86.3632 -32.9315 38.6166 3.95425 -5.12097 -6.36111e-015 -7.95139e-016 -62.5436 69.2036 65.4874 4.41058 12.612 179.301 -0.833487 6.36111e-015 -7.95139e-016 8.46601 4.66869 -4.78261 90 -8.82107e-016 -1.59028e-015 -3.88073 -13.55 175.228 -10.5036 -1.59028e-015 5.96354e-016 10.5575 -1.62059 3.65787 90 -1.21329e-020 -4.77083e-015 
162.759 88.8306 -158.914 130.848 -84.5174 41.7926 -0.538967 -1.38164 -0.921213 -1.10056 -2.7539 -1.85602 -1.10056 -2.7539 -1.85603 -8.30728e-012 -9.0191e-006 -5.27751e-005 4.08785 -0.69948 1.96807 -178.159 -28.2323 -86.1124 -27.0759 -47.958 2.44657 -8.55495 -1.27222e-014 -0 -29.1157 -54.1644 -32.5929 -178.666 21.3152 86.3339 -32.8832 38.6415 3.91253 -5.09797 3.18055e-015 7.95139e-016 -62.5817 69.1742 65.5281 4.34249 12.5717 179.316 -0.938374 -3.18055e-015 7.95139e-016 8.51011 4.65818 -4.77051 90 2.23633e-016 -1.59028e-015 -3.87984 -13.6082 175.231 -10.4947 -3.18056e-015 -3.97569e-016 10.5628 -1.6277 3.65617 90 8.73565e-019 -0 
162.759 88.8305 -158.912 131.084 -84.5075 42.0088 -0.535942 -1.37158 -0.920423 -1.09378 -2.73385 -1.85425 -1.09378 -2.73385 -1.85426 -8.30748e-012 -9.0191e-006 -5.27751e-005 4.14527 -0.707 1.9969 -178.155 -28.2261 -86.1043 -27.0645 -48.0174 2.54309 -8.50549 -6.36111e-015 -1.59028e-015 -29.2104 -54.1247 -32.687 -178.668 21.3279 86.3413 -32.8349 38.7365 3.82171 -5.11732 1.27222e-014 1.59028e-015 -62.6147 69.1488 65.5634 4.2452 12.5933 179.35 -1.07297 0 -0 8.5798 4.66014 -4.76441 90 -1.2424e-016 1.59028e-015 -3.88246 -13.5209 175.258 -10.458 0 5.96354e-016 10.5366 -1.56912 3.65539 90 -1.95263e-020 4.77083e-015 
